<svg id="Layer_1" data-name="Layer 1" xmlns="http://www.w3.org/2000/svg" viewBox="0 0 1071.28 660.5"><defs><style>.cls-1,.cls-7{fill:#ffd369;}.cls-1,.cls-2,.cls-4,.cls-5,.cls-6{opacity:0.8;}.cls-2{fill:#52575d;}.cls-3{fill:none;stroke:#000;stroke-miterlimit:10;}.cls-4{fill:#999;}.cls-5{fill:#ff931e;}.cls-6{fill:#41444b;}</style></defs><title>favicon</title><path class="cls-1" d="M147,225.17a155.83,155.83,0,0,1,311.66,0" transform="translate(-147 -68.5)"/><path class="cls-2" d="M458.66,225.17a155.83,155.83,0,0,1-311.66,0" transform="translate(-147 -68.5)"/><path class="cls-3" d="M246.35,225.45" transform="translate(-147 -68.5)"/><path class="cls-4" d="M458.38,380.16a155.83,155.83,0,0,1,0-311.66" transform="translate(-147 -68.5)"/><path class="cls-1" d="M530.44,225.17a155.84,155.84,0,0,1,311.67,0" transform="translate(-147 -68.5)"/><path class="cls-5" d="M842.11,225.17a155.84,155.84,0,0,1-311.67,0" transform="translate(-147 -68.5)"/><path class="cls-3" d="M629.8,225.45" transform="translate(-147 -68.5)"/><path class="cls-6" d="M841.83,380.16a155.83,155.83,0,0,1,0-311.66" transform="translate(-147 -68.5)"/><path class="cls-4" d="M906.62,225.17a155.83,155.83,0,1,1,311.66,0" transform="translate(-147 -68.5)"/><path class="cls-5" d="M1218.28,225.17a155.83,155.83,0,1,1-311.66,0" transform="translate(-147 -68.5)"/><path class="cls-3" d="M1006,225.45" transform="translate(-147 -68.5)"/><path class="cls-1" d="M1218,380.16a155.83,155.83,0,1,1,0-311.66" transform="translate(-147 -68.5)"/><path class="cls-4" d="M302.83,417.34a155.83,155.83,0,1,1,0,311.66" transform="translate(-147 -68.5)"/><path class="cls-5" d="M302.83,729a155.83,155.83,0,0,1,0-311.66" transform="translate(-147 -68.5)"/><path class="cls-3" d="M246.35,573.45" transform="translate(-147 -68.5)"/><path class="cls-6" d="M458.38,728.16a155.83,155.83,0,0,1,0-311.66" transform="translate(-147 -68.5)"/><path class="cls-6" d="M1218.28,573.17a155.83,155.83,0,1,1-311.66,0" transform="translate(-147 -68.5)"/><path class="cls-3" d="M1006,573.45" transform="translate(-147 -68.5)"/><path class="cls-7" d="M1218,728.16a155.83,155.83,0,1,1,0-311.66" transform="translate(-147 -68.5)"/><path class="cls-4" d="M906.62,573.17a155.83,155.83,0,1,1,311.66,0" transform="translate(-147 -68.5)"/><path class="cls-3" d="M629.8,573.45" transform="translate(-147 -68.5)"/><path class="cls-4" d="M841.83,728.16a155.83,155.83,0,0,1,0-311.66" transform="translate(-147 -68.5)"/><path class="cls-1" d="M530.44,573.17a155.84,155.84,0,0,1,311.67,0" transform="translate(-147 -68.5)"/><path class="cls-6" d="M842.11,573.17a155.84,155.84,0,0,1-311.67,0" transform="translate(-147 -68.5)"/></svg>